# xmcd
#
# Track frame offsets: 
#        150
#        18329
#        31717
#        49763
#        66699
#        87789
#        105876
#        122713
#        135033
#        148628
#        162642
#        176375
#        194953
#        209303
#        220538
#        234428
#
# Disc length: 3299 seconds
#
# Revision: 1
# Processed by: cddbd v1.5.2PL0 Copyright (c) Steve Scherf et al.
# Submitted via: ExactAudioCopy v0.99pb5
#
DISCID=d90ce110
DTITLE=Lightnin' Hopkins - Blue Lightnin' 
DYEAR=1967
DGENRE=Blues
TTITLE0=Found My Baby Crying
TTITLE1=Move on Out Part 1
TTITLE2=Back Door Friend
TTITLE3=Fishing Clothes
TTITLE4=Morning Blues
TTITLE5=Gamblers Blues
TTITLE6=Wig Wearing Woman
TTITLE7=Lonesome Dog Blues
TTITLE8=Last Affair
TTITLE9=Move on Out Part 2
TTITLE10=Katie Mae [bonus]
TTITLE11=Little School Girl [bonus]
TTITLE12=West Texas Blues [bonus]
TTITLE13=Pneumonia Blues [bonus]
TTITLE14=Sail on Little Girl [bonus]
TTITLE15=Little Boy Blue [bonus]
EXTD=
EXTT0=
EXTT1=
EXTT2=
EXTT3=
EXTT4=
EXTT5=
EXTT6=
EXTT7=
EXTT8=
EXTT9=
EXTT10=
EXTT11=
EXTT12=
EXTT13=
EXTT14=
EXTT15=
PLAYORDER=
